<?xml version="1.0" encoding="UTF-8" standalone="no"?>
<!-- Created with Inkscape (http://www.inkscape.org/) -->

<svg
   xmlns:dc="http://purl.org/dc/elements/1.1/"
   xmlns:cc="http://creativecommons.org/ns#"
   xmlns:rdf="http://www.w3.org/1999/02/22-rdf-syntax-ns#"
   xmlns:svg="http://www.w3.org/2000/svg"
   xmlns="http://www.w3.org/2000/svg"
   xmlns:sodipodi="http://sodipodi.sourceforge.net/DTD/sodipodi-0.dtd"
   xmlns:inkscape="http://www.inkscape.org/namespaces/inkscape"
   version="1.1"
   id="svg569"
   xml:space="preserve"
   width="30.3724"
   height="31.061199"
   viewBox="0 0 30.3724 31.061199"
   sodipodi:docname="download-icon.svg"
   inkscape:version="0.92.4 (unknown)"><metadata
     id="metadata575"><rdf:RDF><cc:Work
         rdf:about=""><dc:format>image/svg+xml</dc:format><dc:type
           rdf:resource="http://purl.org/dc/dcmitype/StillImage" /><dc:title></dc:title></cc:Work></rdf:RDF></metadata><defs
     id="defs573"><clipPath
       clipPathUnits="userSpaceOnUse"
       id="clipPath585"><path
         d="M 0,23.296 H 22.779 V 0 H 0 Z"
         id="path583"
         inkscape:connector-curvature="0" /></clipPath></defs><sodipodi:namedview
     pagecolor="#ffffff"
     bordercolor="#666666"
     borderopacity="1"
     objecttolerance="10"
     gridtolerance="10"
     guidetolerance="10"
     inkscape:pageopacity="0"
     inkscape:pageshadow="2"
     inkscape:window-width="1920"
     inkscape:window-height="978"
     id="namedview571"
     showgrid="false"
     inkscape:zoom="7.5979037"
     inkscape:cx="15.1862"
     inkscape:cy="15.5306"
     inkscape:window-x="0"
     inkscape:window-y="27"
     inkscape:window-maximized="1"
     inkscape:current-layer="g577" /><g
     id="g577"
     inkscape:groupmode="layer"
     inkscape:label="download-icon"
     transform="matrix(1.3333333,0,0,-1.3333333,0,31.0612)"><g
       clip-path="url(#clipPath585)"
       id="g581"
       transform="rotate(-90,11.38975,11.648)"><g
         transform="translate(8.6055,4.0513)"
         id="g587"><path
           inkscape:connector-curvature="0"
           id="path589"
           style="fill:#8c8c8cfill-opacity:1;fill-rule:nonzero;stroke:none"
           d="m 0,0 c -0.203,0 -0.41,0.062 -0.586,0.191 -0.447,0.326 -0.547,0.951 -0.221,1.397 l 4.371,6.008 -4.371,6.01 c -0.326,0.447 -0.226,1.073 0.221,1.397 0.445,0.326 1.072,0.226 1.397,-0.22 L 5.609,8.185 c 0.256,-0.352 0.256,-0.827 0,-1.177 L 0.811,0.412 C 0.615,0.143 0.311,0 0,0" /></g><g
         transform="translate(13.4062,10.6474)"
         id="g591"><path
           inkscape:connector-curvature="0"
           id="path593"
           style="fill:#8c8c8cfill-opacity:1;fill-rule:nonzero;stroke:none"
           d="m 0,0 h -12.406 c -0.553,0 -1,0.448 -1,1 0,0.552 0.447,1 1,1 H 0 C 0.553,2 1,1.552 1,1 1,0.448 0.553,0 0,0" /></g><g
         transform="translate(21.7793)"
         id="g595"><path
           inkscape:connector-curvature="0"
           id="path597"
           style="fill:#8c8c8cfill-opacity:1;fill-rule:nonzero;stroke:none"
           d="m 0,0 c -0.553,0 -1,0.448 -1,1 v 21.296 c 0,0.552 0.447,1 1,1 0.553,0 1,-0.448 1,-1 V 1 C 1,0.448 0.553,0 0,0" /></g><g
         transform="translate(21.7793,21.2959)"
         id="g599"><path
           inkscape:connector-curvature="0"
           id="path601"
           style="fill:#8c8c8cfill-opacity:1;fill-rule:nonzero;stroke:none"
           d="m 0,0 h -13.383 c -0.553,0 -1,0.448 -1,1 0,0.552 0.447,1 1,1 H 0 C 0.553,2 1,1.552 1,1 1,0.448 0.553,0 0,0" /></g><g
         transform="translate(21.7793)"
         id="g603"><path
           inkscape:connector-curvature="0"
           id="path605"
           style="fill:#8c8c8cfill-opacity:1;fill-rule:nonzero;stroke:none"
           d="m 0,0 h -13.383 c -0.553,0 -1,0.448 -1,1 0,0.552 0.447,1 1,1 H 0 C 0.553,2 1,1.552 1,1 1,0.448 0.553,0 0,0" /></g></g></g></svg>