<?xml version="1.0" encoding="UTF-8" standalone="no"?>
<!-- Created with Inkscape (http://www.inkscape.org/) -->

<svg
        xmlns:dc="http://purl.org/dc/elements/1.1/"
        xmlns:cc="http://creativecommons.org/ns#"
        xmlns:rdf="http://www.w3.org/1999/02/22-rdf-syntax-ns#"
        xmlns:svg="http://www.w3.org/2000/svg"
        xmlns="http://www.w3.org/2000/svg"
        xmlns:sodipodi="http://sodipodi.sourceforge.net/DTD/sodipodi-0.dtd"
        xmlns:inkscape="http://www.inkscape.org/namespaces/inkscape"
        version="1.1"
        id="svg85"
        xml:space="preserve"
        width="24.442801"
        height="30.037733"
        viewBox="0 0 24.442801 30.037733"
        sodipodi:docname="link-icon-2.svg"
        inkscape:version="0.92.4 (unknown)"><defs
     id="defs89"><clipPath
       clipPathUnits="userSpaceOnUse"
       id="clipPath101"><path
         d="M 0,22.528 H 18.332 V 0 H 0 Z"
         id="path99"
         inkscape:connector-curvature="0" /></clipPath></defs>
    <g
            id="g93"
            inkscape:groupmode="layer"
            inkscape:label="link-icon-2"
            transform="matrix(1.3333333,0,0,-1.3333333,0,30.037733)"><g
       id="g95"><g
         id="g97"
         clip-path="url(#clipPath101)"><g
           id="g103"
           transform="translate(11.3321,0.5)"><path
             d="m 0,0 c -0.277,0 -0.5,0.224 -0.5,0.5 v 6 C -0.5,6.776 -0.277,7 0,7 H 6 C 6.275,7 6.5,6.776 6.5,6.5 6.5,6.224 6.275,6 6,6 H 0.5 V 0.5 C 0.5,0.224 0.275,0 0,0"
             style="fill-opacity:1;fill-rule:nonzero;stroke:none"
             id="path105"
             inkscape:connector-curvature="0" /></g><g
            id="g107"
            transform="translate(2,2)"><path
             d="m 0,0 h 8.918 l 5.414,5.414 V 18.528 H 0 Z M 9.332,-2 H -1 c -0.553,0 -1,0.447 -1,1 v 20.528 c 0,0.553 0.447,1 1,1 h 16.332 c 0.553,0 1,-0.447 1,-1 V 5 c 0,-0.266 -0.105,-0.52 -0.293,-0.707 l -6,-6 C 9.852,-1.895 9.598,-2 9.332,-2"
             style="fill-opacity:1;fill-rule:nonzero;stroke:none"
             id="path109"
             inkscape:connector-curvature="0" /></g><g
            id="g111"
            transform="translate(10.2481,17.2353)"><path
             d="m 0,0 h -5.875 c -0.275,0 -0.5,0.224 -0.5,0.5 0,0.276 0.225,0.5 0.5,0.5 H 0 C 0.277,1 0.5,0.776 0.5,0.5 0.5,0.224 0.277,0 0,0"
             style="fill-opacity:1;fill-rule:nonzero;stroke:none"
             id="path113"
             inkscape:connector-curvature="0" /></g><g
            id="g115"
            transform="translate(14.1231,14.8183)"><path
             d="m 0,0 h -9.75 c -0.275,0 -0.5,0.224 -0.5,0.5 0,0.276 0.225,0.5 0.5,0.5 H 0 C 0.277,1 0.5,0.776 0.5,0.5 0.5,0.224 0.277,0 0,0"
             style="fill-opacity:1;fill-rule:nonzero;stroke:none"
             id="path117"
             inkscape:connector-curvature="0" /></g><g
            id="g119"
            transform="translate(14.1231,12.4013)"><path
             d="m 0,0 h -9.75 c -0.275,0 -0.5,0.224 -0.5,0.5 0,0.276 0.225,0.5 0.5,0.5 H 0 C 0.277,1 0.5,0.776 0.5,0.5 0.5,0.224 0.277,0 0,0"
             style="fill-opacity:1;fill-rule:nonzero;stroke:none"
             id="path121"
             inkscape:connector-curvature="0" /></g><g
            id="g123"
            transform="translate(8.4571,9.9843)"><path
             d="m 0,0 h -4.084 c -0.275,0 -0.5,0.224 -0.5,0.5 0,0.276 0.225,0.5 0.5,0.5 H 0 C 0.275,1 0.5,0.776 0.5,0.5 0.5,0.224 0.275,0 0,0"
             style="fill-opacity:1;fill-rule:nonzero;stroke:none"
             id="path125"
             inkscape:connector-curvature="0" /></g></g></g></g></svg>