<?xml version="1.0" encoding="UTF-8" standalone="no"?>
<!-- Created with Inkscape (http://www.inkscape.org/) -->

<svg
        xmlns:dc="http://purl.org/dc/elements/1.1/"
        xmlns:cc="http://creativecommons.org/ns#"
        xmlns:rdf="http://www.w3.org/1999/02/22-rdf-syntax-ns#"
        xmlns:svg="http://www.w3.org/2000/svg"
        xmlns="http://www.w3.org/2000/svg"
        xmlns:sodipodi="http://sodipodi.sourceforge.net/DTD/sodipodi-0.dtd"
        xmlns:inkscape="http://www.inkscape.org/namespaces/inkscape"
        version="1.1"
        id="svg55"
        xml:space="preserve"
        width="29.666668"
        height="25.333332"
        viewBox="0 0 29.666668 25.333332"
        sodipodi:docname="link-icon-3.svg"
        inkscape:version="0.92.4 (unknown)">
    <defs
            id="defs59"><clipPath
       clipPathUnits="userSpaceOnUse"
       id="clipPath71"><path
         d="M 0,19 H 22.25 V 0 H 0 Z"
         id="path69"
         inkscape:connector-curvature="0" /></clipPath></defs>
    <g
            id="g63"
            inkscape:groupmode="layer"
            inkscape:label="link-icon-3"
            transform="matrix(1.3333333,0,0,-1.3333333,0,25.333333)"><g
       id="g65"><g
         id="g67"
         clip-path="url(#clipPath71)"><g
           id="g73"
           transform="translate(2,17)"><path
             d="m 0,0 v -11.25 h 3.252 c 0.553,0 1,-0.447 1,-1 v -1.686 l 3.127,2.47 c 0.176,0.14 0.394,0.216 0.619,0.216 H 18.25 V 0 Z m 3.252,-17 c -0.148,0 -0.297,0.033 -0.436,0.1 -0.345,0.168 -0.564,0.516 -0.564,0.9 v 2.75 H 0 c -1.102,0 -2,0.897 -2,2 V 0 c 0,1.103 0.898,2 2,2 h 18.25 c 1.104,0 2,-0.897 2,-2 v -11.25 c 0,-1.103 -0.896,-2 -2,-2 H 8.346 L 3.873,-16.784 C 3.693,-16.927 3.473,-17 3.252,-17"
             style="fill-opacity:1;fill-rule:nonzero;stroke:none"
             id="path75"
             inkscape:connector-curvature="0" /></g><g
            id="g77"
            transform="translate(17,12.5)"><path
             d="m 0,0 h -11.25 c -0.275,0 -0.5,0.224 -0.5,0.5 0,0.276 0.225,0.5 0.5,0.5 H 0 C 0.277,1 0.5,0.776 0.5,0.5 0.5,0.224 0.277,0 0,0"
             style="fill-opacity:1;fill-rule:nonzero;stroke:none"
             id="path79"
             inkscape:connector-curvature="0" /></g><g
            id="g81"
            transform="translate(17,9.416)"><path
             d="m 0,0 h -11.25 c -0.275,0 -0.5,0.224 -0.5,0.5 0,0.276 0.225,0.5 0.5,0.5 H 0 C 0.277,1 0.5,0.776 0.5,0.5 0.5,0.224 0.277,0 0,0"
             style="fill-opacity:1;fill-rule:nonzero;stroke:none"
             id="path83"
             inkscape:connector-curvature="0" /></g></g></g></g></svg>