<?xml version="1.0" encoding="UTF-8" standalone="no"?>
<!-- Created with Inkscape (http://www.inkscape.org/) -->

<svg
        xmlns:dc="http://purl.org/dc/elements/1.1/"
        xmlns:cc="http://creativecommons.org/ns#"
        xmlns:rdf="http://www.w3.org/1999/02/22-rdf-syntax-ns#"
        xmlns:svg="http://www.w3.org/2000/svg"
        xmlns="http://www.w3.org/2000/svg"
        xmlns:sodipodi="http://sodipodi.sourceforge.net/DTD/sodipodi-0.dtd"
        xmlns:inkscape="http://www.inkscape.org/namespaces/inkscape"
        version="1.1"
        id="svg29"
        xml:space="preserve"
        width="28.611868"
        height="31.3424"
        viewBox="0 0 28.611868 31.3424"
        sodipodi:docname="tar-icon-2.svg"
        inkscape:version="0.92.4 (unknown)">
    <defs
            id="defs33"><clipPath
       clipPathUnits="userSpaceOnUse"
       id="clipPath45"><path
         d="M 0,23.507 H 21.459 V 0 H 0 Z"
         id="path43"
         inkscape:connector-curvature="0" /></clipPath></defs>
    <g
            id="g37"
            inkscape:groupmode="layer"
            inkscape:label="tar-icon-2"
            transform="matrix(1.3333333,0,0,-1.3333333,0,31.3424)"><g
       id="g39"><g
         id="g41"
         clip-path="url(#clipPath45)"><g
           id="g47"
           transform="translate(3.25,13.0068)"><path
             d="m 0,0 c -0.553,0 -1,0.447 -1,1 v 8.5 c 0,0.553 0.447,1 1,1 0.553,0 1,-0.447 1,-1 V 1 C 1,0.447 0.553,0 0,0"
             style="fill:#878787;fill-opacity:1;fill-rule:nonzero;stroke:none"
             id="path49"
             inkscape:connector-curvature="0" /></g><g
            id="g51"
            transform="translate(3.25)"><path
             d="m 0,0 c -0.553,0 -1,0.447 -1,1 v 7.341 c 0,0.553 0.447,1 1,1 0.553,0 1,-0.447 1,-1 V 1 C 1,0.447 0.553,0 0,0"
             style="fill:#878787;fill-opacity:1;fill-rule:nonzero;stroke:none"
             id="path53"
             inkscape:connector-curvature="0" /></g><g
            id="g55"
            transform="translate(3.25,12.1738)"><path
             d="m 0,0 c -0.689,0 -1.25,-0.561 -1.25,-1.25 0,-0.689 0.561,-1.25 1.25,-1.25 0.689,0 1.25,0.561 1.25,1.25 C 1.25,-0.561 0.689,0 0,0 m 0,-4.5 c -1.791,0 -3.25,1.458 -3.25,3.25 C -3.25,0.542 -1.791,2 0,2 1.793,2 3.25,0.542 3.25,-1.25 3.25,-3.042 1.793,-4.5 0,-4.5"
             style="fill:#878787;fill-opacity:1;fill-rule:nonzero;stroke:none"
             id="path57"
             inkscape:connector-curvature="0" /></g><g
            id="g59"
            transform="translate(10.7285,8.3408)"><path
             d="m 0,0 c -0.553,0 -1,0.447 -1,1 v 13.166 c 0,0.553 0.447,1 1,1 0.553,0 1,-0.447 1,-1 V 1 C 1,0.447 0.553,0 0,0"
             style="fill:#878787;fill-opacity:1;fill-rule:nonzero;stroke:none"
             id="path61"
             inkscape:connector-curvature="0" /></g><g
            id="g63"
            transform="translate(10.7285)"><path
             d="m 0,0 c -0.553,0 -1,0.447 -1,1 v 3.341 c 0,0.553 0.447,1 1,1 0.553,0 1,-0.447 1,-1 V 1 C 1,0.447 0.553,0 0,0"
             style="fill:#878787;fill-opacity:1;fill-rule:nonzero;stroke:none"
             id="path65"
             inkscape:connector-curvature="0" /></g><g
            id="g67"
            transform="translate(10.7285,8.1738)"><path
             d="m 0,0 c -0.689,0 -1.25,-0.561 -1.25,-1.25 0,-0.689 0.561,-1.25 1.25,-1.25 0.689,0 1.25,0.561 1.25,1.25 C 1.25,-0.561 0.689,0 0,0 m 0,-4.5 c -1.791,0 -3.25,1.458 -3.25,3.25 C -3.25,0.542 -1.791,2 0,2 1.793,2 3.25,0.542 3.25,-1.25 3.25,-3.042 1.793,-4.5 0,-4.5"
             style="fill:#878787;fill-opacity:1;fill-rule:nonzero;stroke:none"
             id="path69"
             inkscape:connector-curvature="0" /></g><g
            id="g71"
            transform="translate(18.209,17.8398)"><path
             d="m 0,0 c -0.553,0 -1,0.447 -1,1 v 3.667 c 0,0.553 0.447,1 1,1 0.553,0 1,-0.447 1,-1 V 1 C 1,0.447 0.553,0 0,0"
             style="fill:#878787;fill-opacity:1;fill-rule:nonzero;stroke:none"
             id="path73"
             inkscape:connector-curvature="0" /></g><g
            id="g75"
            transform="translate(18.209)"><path
             d="m 0,0 c -0.553,0 -1,0.447 -1,1 v 13.007 c 0,0.553 0.447,1 1,1 0.553,0 1,-0.447 1,-1 V 1 C 1,0.447 0.553,0 0,0"
             style="fill:#878787;fill-opacity:1;fill-rule:nonzero;stroke:none"
             id="path77"
             inkscape:connector-curvature="0" /></g><g
            id="g79"
            transform="translate(18.209,17.8398)"><path
             d="m 0,0 c -0.689,0 -1.25,-0.561 -1.25,-1.25 0,-0.689 0.561,-1.25 1.25,-1.25 0.689,0 1.25,0.561 1.25,1.25 C 1.25,-0.561 0.689,0 0,0 m 0,-4.5 c -1.791,0 -3.25,1.458 -3.25,3.25 C -3.25,0.542 -1.791,2 0,2 1.793,2 3.25,0.542 3.25,-1.25 3.25,-3.042 1.793,-4.5 0,-4.5"
             style="fill:#878787;fill-opacity:1;fill-rule:nonzero;stroke:none"
             id="path81"
             inkscape:connector-curvature="0" /></g></g></g></g></svg>