<?xml version="1.0" encoding="UTF-8" standalone="no"?>
<!-- Created with Inkscape (http://www.inkscape.org/) -->

<svg
        xmlns:dc="http://purl.org/dc/elements/1.1/"
        xmlns:cc="http://creativecommons.org/ns#"
        xmlns:rdf="http://www.w3.org/1999/02/22-rdf-syntax-ns#"
        xmlns:svg="http://www.w3.org/2000/svg"
        xmlns="http://www.w3.org/2000/svg"
        xmlns:sodipodi="http://sodipodi.sourceforge.net/DTD/sodipodi-0.dtd"
        xmlns:inkscape="http://www.inkscape.org/namespaces/inkscape"
        version="1.1"
        id="svg83"
        xml:space="preserve"
        width="31.666668"
        height="31.666668"
        viewBox="0 0 31.666668 31.666668"
        sodipodi:docname="tar-icon-1.svg"
        inkscape:version="0.92.4 (unknown)">
    <defs
            id="defs87"><clipPath
       clipPathUnits="userSpaceOnUse"
       id="clipPath99"><path
         d="M 0,23.75 H 23.75 V 0 H 0 Z"
         id="path97"
         inkscape:connector-curvature="0" /></clipPath></defs>
    <g
            id="g91"
            inkscape:groupmode="layer"
            inkscape:label="tar-icon-1"
            transform="matrix(1.3333333,0,0,-1.3333333,0,31.666667)"><g
       id="g93"><g
         id="g95"
         clip-path="url(#clipPath99)"><g
           id="g101"
           transform="translate(11.875,21.7501)"><path
             d="m 0,0 c -5.445,0 -9.875,-4.43 -9.875,-9.875 0,-5.445 4.43,-9.875 9.875,-9.875 5.445,0 9.875,4.43 9.875,9.875 C 9.875,-4.43 5.445,0 0,0 m 0,-21.75 c -6.549,0 -11.875,5.327 -11.875,11.875 C -11.875,-3.327 -6.549,2 0,2 6.549,2 11.875,-3.327 11.875,-9.875 11.875,-16.423 6.549,-21.75 0,-21.75"
             style="fill:#fff;fill-opacity:1;fill-rule:nonzero;stroke:none"
             id="path103"
             inkscape:connector-curvature="0" /></g><g
            id="g105"
            transform="translate(11.875,22.2501)"><path
             d="m 0,0 c -3.193,0 -5.791,-4.654 -5.791,-10.375 0,-5.721 2.598,-10.375 5.791,-10.375 3.191,0 5.789,4.654 5.789,10.375 C 5.789,-4.654 3.191,0 0,0 m 0,-21.75 c -3.744,0 -6.791,5.103 -6.791,11.375 C -6.791,-4.103 -3.744,1 0,1 3.742,1 6.789,-4.103 6.789,-10.375 6.789,-16.647 3.742,-21.75 0,-21.75"
             style="fill:#fff;fill-opacity:1;fill-rule:nonzero;stroke:none"
             id="path107"
             inkscape:connector-curvature="0" /></g><g
            id="g109"
            transform="translate(12.375,22.2383)"><path
             d="m 0,0 v -20.727 c 5.49,0.262 9.875,4.81 9.875,10.364 C 9.875,-4.81 5.49,-0.262 0,0 m -0.5,-21.738 c -0.277,0 -0.5,0.223 -0.5,0.5 v 21.75 c 0,0.276 0.223,0.5 0.5,0.5 6.271,0 11.375,-5.103 11.375,-11.375 0,-6.272 -5.104,-11.375 -11.375,-11.375"
             style="fill:#fff;fill-opacity:1;fill-rule:nonzero;stroke:none"
             id="path111"
             inkscape:connector-curvature="0" /></g><g
            id="g113"
            transform="translate(2.0586,8.5421)"><path
             d="m 0,0 h 19.631 c 0.373,1.087 0.56,2.207 0.56,3.333 0,1.126 -0.187,2.246 -0.56,3.334 H 0.002 C -0.371,5.579 -0.559,4.459 -0.559,3.333 -0.559,2.208 -0.371,1.088 0,0 M 19.982,-1 H -0.352 c -0.209,0 -0.394,0.129 -0.468,0.324 -0.491,1.302 -0.739,2.652 -0.739,4.009 0,1.359 0.248,2.709 0.741,4.011 0.074,0.194 0.259,0.323 0.468,0.323 h 20.332 c 0.209,0 0.395,-0.129 0.469,-0.323 0.492,-1.302 0.74,-2.652 0.74,-4.011 0,-1.36 -0.248,-2.709 -0.74,-4.01 C 20.377,-0.871 20.191,-1 19.982,-1"
             style="fill:#fff;fill-opacity:1;fill-rule:nonzero;stroke:none"
             id="path115"
             inkscape:connector-curvature="0" /></g></g></g></g></svg>